<svg xmlns="http://www.w3.org/2000/svg" version="1.1" xmlns:xlink="http://www.w3.org/1999/xlink" xmlns:svgjs="http://svgjs.dev/svgjs" viewBox="0 0 1422 800"><g fill="hsl(180, 87%, 21%)"><path d="M203 731H253C281 731 303 753 303 781H253C225 781 203 759 203 731Z " transform="matrix(-0.18194644881991148,0.232880834674292,-0.232880834674292,-0.18194644881991148,475.0903625652023,834.6326641352572)" opacity="0.45"></path><path d="M1209 143H1259C1287 143 1309 165 1309 193H1259C1231 193 1209 171 1209 143Z " transform="matrix(-0.25864765017115937,0.18791851761800038,-0.18791851761800038,-0.25864765017115937,1616.2077025253138,-25.136608452307684)" opacity="0.49"></path><path d="M928 352H978C1006 352 1028 374 1028 402H978C950 402 928 380 928 352Z " transform="matrix(-0.3493652556415347,0.0742598775061329,-0.0742598775061329,-0.3493652556415347,1347.675193837233,436.08454117586064)" opacity="0.55"></path><path d="M246 28H296C324 28 346 50 346 78H296C268 78 246 56 246 28Z " transform="matrix(-0.35699421774960693,0.05654232937736718,-0.05654232937736718,-0.35699421774960693,404.66703191088413,55.18416404502848)" opacity="0.55"></path><path d="M681 298H731C759 298 781 320 781 348H731C703 348 681 326 681 298Z " transform="matrix(-0.3206479741085992,0.1230852251672584,-0.1230852251672584,-0.3206479741085992,1005.1501968024104,336.59399603981166)" opacity="0.53"></path><path d="M427 717H477C505 717 527 739 527 767H477C449 767 427 745 427 717Z " transform="matrix(-0.24510821034341843,0.1984847151411037,-0.1984847151411037,-0.24510821034341843,741.1922749685095,829.19308295251)" opacity="0.48"></path><path d="M1244 329H1294C1322 329 1344 351 1344 379H1294C1266 379 1244 357 1244 329Z " transform="matrix(-0.2679580648732116,0.18073999691359674,-0.18073999691359674,-0.2679580648732116,1704.719694853349,214.9795989589227)" opacity="0.49"></path><path d="M763 727H813C841 727 863 749 863 777H813C785 777 763 755 763 727Z " transform="matrix(-0.3397671459896888,0.09104033238256459,-0.09104033238256459,-0.3397671459896888,1157.6930196413057,933.489103557221)" opacity="0.54"></path><path d="M1133 588H1183C1211 588 1233 610 1233 638H1183C1155 638 1133 616 1133 588Z " transform="matrix(-0.3202373936448698,0.12292761809374451,-0.12292761809374451,-0.3202373936448698,1637.195466573346,663.8821500994054)" opacity="0.53"></path><path d="M320 725H370C398 725 420 747 420 775H370C342 775 320 753 320 725Z " transform="matrix(-0.20714907430175772,0.2221401855917831,-0.2221401855917831,-0.20714907430175772,613.2502966854877,823.1699370573585)" opacity="0.46"></path><path d="M638 598H688C716 598 738 620 738 648H688C660 648 638 626 638 598Z " transform="matrix(-0.3131342287092763,0.13291759418030658,-0.13291759418030658,-0.3131342287092763,986.244010526313,726.6353196898283)" opacity="0.52"></path><path d="M360 483H410C438 483 460 505 460 533H410C382 533 360 511 360 483Z " transform="matrix(-0.21660954481800215,0.21660954481800218,-0.21660954481800218,-0.21660954481800215,608.847562142926,529.2277353921642)" opacity="0.47"></path><path d="M459 530H509C537 530 559 552 559 580H509C481 580 459 558 459 530Z " transform="matrix(-0.2545869168486097,0.19184500229445303,-0.19184500229445303,-0.2545869168486097,745.0587169493638,598.6466326831018)" opacity="0.49"></path><path d="M557 349H607C635 349 657 371 657 399H607C579 399 557 377 557 349Z " transform="matrix(-0.2853755935627997,0.1647616757636316,-0.1647616757636316,-0.2853755935627997,841.8438520282176,380.7201348039627)" opacity="0.50"></path><path d="M122 40H172C200 40 222 62 222 90H172C144 90 122 68 122 40Z " transform="matrix(-0.3271470394157572,0.11264575927680784,-0.11264575927680784,-0.3271470394157572,235.59126513250277,66.88948696641326)" opacity="0.53"></path><path d="M-1 615H49C77 615 99 637 99 665H49C21 665 -1 643 -1 615Z " transform="matrix(-0.1615324546263652,0.23948171237710433,-0.23948171237710433,-0.1615324546263652,210.18338619803868,731.6461670543956)" opacity="0.44"></path><path d="M1305 706H1355C1383 706 1405 728 1405 756H1355C1327 756 1305 734 1305 706Z " transform="matrix(-0.23113597483157866,0.20811576652107724,-0.20811576652107724,-0.23113597483157866,1820.3218712236967,617.9635339658244)" opacity="0.48"></path><path d="M642 715H692C720 715 742 737 742 765H692C664 765 642 743 642 715Z " transform="matrix(-0.3131342287092763,0.13291759418030658,-0.13291759418030658,-0.3131342287092763,1007.0479059602461,879.7403540720924)" opacity="0.52"></path><path d="M1195 473H1245C1273 473 1295 495 1295 523H1245C1217 523 1195 501 1195 473Z " transform="matrix(-0.2847583115363379,0.16440528781948796,-0.16440528781948796,-0.2847583115363379,1681.397931196846,435.1250558098338)" opacity="0.50"></path><path d="M91 718H141C169 718 191 740 191 768H141C113 768 91 746 91 718Z " transform="matrix(-0.16661789594796453,0.23795501598565078,-0.23795501598565078,-0.16661789594796453,341.2937002060015,833.2454394353608)" opacity="0.44"></path><path d="M238 453H288C316 453 338 475 338 503H288C260 503 238 481 238 453Z " transform="matrix(-0.18708096093801138,0.2310257467041954,-0.2310257467041954,-0.18708096093801138,452.30962367475263,500.8892842775612)" opacity="0.45"></path><path d="M107 317H157C185 317 207 339 207 367H157C129 367 107 345 107 317Z " transform="matrix(-0.16716985541606577,0.23874329579982195,-0.23874329579982195,-0.16716985541606577,264.8958744638614,361.68939311172244)" opacity="0.45"></path><path d="M315 264H365C393 264 415 286 415 314H365C337 314 315 292 315 264Z " transform="matrix(-0.20714907430175772,0.2221401855917831,-0.2221401855917831,-0.20714907430175772,504.8079257561669,267.78491473220714)" opacity="0.46"></path><path d="M1041 465H1091C1119 465 1141 487 1141 515H1091C1063 515 1041 493 1041 465Z " transform="matrix(-0.340623983896319,0.09126992140769052,-0.09126992140769052,-0.340623983896319,1507.3430279206523,557.330267853406)" opacity="0.54"></path><path d="M575 494H625C653 494 675 516 675 544H625C597 544 575 522 575 494Z " transform="matrix(-0.29684192462317993,0.15124851507241713,-0.15124851507241713,-0.29684192462317993,889.024182212072,578.5306369591697)" opacity="0.51"></path><path d="M321 144H371C399 144 421 166 421 194H371C343 194 321 172 321 144Z " transform="matrix(-0.24100546093608602,0.20222759338318025,-0.20222759338318025,-0.24100546093608602,494.5894892890454,134.70348575303868)" opacity="0.48"></path><path d="M727 507H777C805 507 827 529 827 557H777C749 557 727 535 727 507Z " transform="matrix(-0.3340379873189466,0.10212566149610101,-0.10212566149610101,-0.3340379873189466,1090.8783680627473,630.3565702712091)" opacity="0.54"></path><path d="M842 26H892C920 26 942 48 942 76H892C864 76 842 54 842 26Z " transform="matrix(-0.33706038560524965,0.09665051029439006,-0.09665051029439006,-0.33706038560524965,1197.5870399848966,-18.022175516728197)" opacity="0.54"></path><path d="M437 318H487C515 318 537 340 537 368H487C459 368 437 346 437 318Z " transform="matrix(-0.24510821034341843,0.1984847151411037,-0.1984847151411037,-0.24510821034341843,674.4479557306432,330.41005987407505)" opacity="0.48"></path><path d="M1050 154H1100C1128 154 1150 176 1150 204H1100C1072 204 1050 182 1050 154Z " transform="matrix(-0.336427849716542,0.09646913354697628,-0.09646913354697628,-0.336427849716542,1487.338609593105,133.1045381975871)" opacity="0.54"></path><path d="M468 424H518C546 424 568 446 568 474H518C490 474 468 452 468 424Z " transform="matrix(-0.2545869168486097,0.19184500229445303,-0.19184500229445303,-0.2545869168486097,736.0144289577892,463.93381447649904)" opacity="0.49"></path><path d="M4 375H54C82 375 104 397 104 425H54C26 425 4 403 4 375Z " transform="matrix(-0.1615324546263652,0.23948171237710433,-0.23948171237710433,-0.1615324546263652,158.51543750066548,451.68096938218247)" opacity="0.44"></path><path d="M285 552H335C363 552 385 574 385 602H335C307 602 285 580 285 552Z " transform="matrix(-0.20165537768193748,0.22396098613616727,-0.22396098613616727,-0.20165537768193748,531.7800405240175,618.3282225668619)" opacity="0.46"></path><path d="M7 135H57C85 135 107 157 107 185H57C29 185 7 163 7 135Z " transform="matrix(-0.20222392368401057,0.22459242044132577,-0.22459242044132577,-0.20222392368401057,104.46155092060073,179.55405982428613)" opacity="0.46"></path><path d="M532 723H582C610 723 632 745 632 773H582C554 773 532 751 532 723Z " transform="matrix(-0.27636596537413516,0.17269262167313146,-0.17269262167313146,-0.27636596537413516,872.019072859249,854.2146362860906)" opacity="0.50"></path><path d="M-3 722H47C75 722 97 744 97 772H47C19 772 -3 750 -3 722Z " transform="matrix(-0.1615324546263652,0.23948171237710433,-0.23948171237710433,-0.1615324546263652,233.48486451313613,856.4091031241709)" opacity="0.44"></path><path d="M4 256H54C82 256 104 278 104 306H54C26 306 4 284 4 256Z " transform="matrix(-0.1615324546263652,0.23948171237710433,-0.23948171237710433,-0.1615324546263652,130.01711372779005,313.45860728164496)" opacity="0.44"></path><path d="M205 243H255C283 243 305 265 305 293H255C227 293 205 271 205 243Z " transform="matrix(-0.18194644881991148,0.232880834674292,-0.232880834674292,-0.18194644881991148,363.8084081417877,257.3770354417918)" opacity="0.45"></path><path d="M1321 417H1371C1399 417 1421 439 1421 467H1371C1343 467 1321 445 1321 417Z " transform="matrix(-0.21155007106923168,0.21906651147673895,-0.21906651147673895,-0.21155007106923168,1757.8625455086353,235.1649441779913)" opacity="0.47"></path><path d="M1116 370H1166C1194 370 1216 392 1216 420H1166C1138 420 1116 398 1116 370Z " transform="matrix(-0.3202373936448698,0.12292761809374451,-0.12292761809374451,-0.3202373936448698,1587.9532101369473,378.16016779241744)" opacity="0.53"></path><path d="M803 151H853C881 151 903 173 903 201H853C825 201 803 179 803 151Z " transform="matrix(-0.3402432489571454,0.09116790378820863,-0.09116790378820863,-0.3402432489571454,1159.2730424271697,158.11658988511562)" opacity="0.54"></path><path d="M986 26H1036C1064 26 1086 48 1086 76H1036C1008 76 986 54 986 26Z " transform="matrix(-0.3055932288132859,0.142500462875948,-0.142500462875948,-0.3055932288132859,1359.8621086572375,-81.04522487000455)" opacity="0.52"></path><path d="M1 490H51C79 490 101 512 101 540H51C23 540 1 518 1 490Z " transform="matrix(-0.1615324546263652,0.23948171237710433,-0.23948171237710433,-0.1615324546263652,182.57123706015335,585.9756468013458)" opacity="0.44"></path><path d="M519 617H569C597 617 619 639 619 667H569C541 667 519 645 519 617Z " transform="matrix(-0.27636596537413516,0.17269262167313146,-0.17269262167313146,-0.27636596537413516,837.1208974120334,721.164848038183)" opacity="0.50"></path><path d="M1029 287H1079C1107 287 1129 309 1129 337H1079C1051 337 1029 315 1029 287Z " transform="matrix(-0.340623983896319,0.09126992140769052,-0.09126992140769052,-0.340623983896319,1475.0094941033276,319.79443777675345)" opacity="0.54"></path><path d="M909 465H959C987 465 1009 487 1009 515H959C931 515 909 493 909 465Z " transform="matrix(-0.35097513306285927,0.06822265486441051,-0.06822265486441051,-0.35097513306285927,1329.0142534908432,596.5522891858313)" opacity="0.55"></path><path d="M892 705H942C970 705 992 727 992 755H942C914 755 892 733 892 705Z " transform="matrix(-0.34956185895302255,0.07430166683003571,-0.07430166683003571,-0.34956185895302255,1325.5274879196734,915.1879868818128)" opacity="0.55"></path><path d="M612 25H662C690 25 712 47 712 75H662C634 75 612 53 612 25Z " transform="matrix(-0.35958433985198907,0.05053628326870706,-0.05053628326870706,-0.35958433985198907,902.5716471454521,34.52419746871538)" opacity="0.56"></path></g><g fill="none" stroke-width="3" stroke="hsl(180, 87%, 21%)"><path d="M177 539H227C255 539 277 561 277 589H227C199 589 177 567 177 539Z " transform="matrix(-0.17692026598305183,0.23478112281251445,-0.23478112281251445,-0.17692026598305183,399.5774536444109,610.4877151360005)" opacity="0.45"></path><path d="M721 44H771C799 44 821 66 821 94H771C743 94 721 72 721 44Z " transform="matrix(-0.3463702201438202,0.07996586618436677,-0.07996586618436677,-0.3463702201438202,1043.5690844976066,31.24586236177681)" opacity="0.54"></path><path d="M383 614H433C461 614 483 636 483 664H433C405 664 383 642 383 614Z " transform="matrix(-0.22609700176974637,0.21083886508078206,-0.21083886508078206,-0.22609700176974637,665.6260365529198,692.1827555508893)" opacity="0.47"></path><path d="M79 566H129C157 566 179 588 179 616H129C101 616 79 594 79 566Z " transform="matrix(-0.16661789594796453,0.23795501598565078,-0.23795501598565078,-0.16661789594796453,291.12512302480707,658.7749794430981)" opacity="0.44"></path><path d="M579 125H629C657 125 679 147 679 175H629C601 175 579 153 579 125Z " transform="matrix(-0.3086183947294739,0.1374057621474346,-0.1374057621474346,-0.3086183947294739,843.7318346069542,109.86453481868472)" opacity="0.52"></path><path d="M1108 41H1158C1186 41 1208 63 1208 91H1158C1130 91 1108 69 1108 41Z " transform="matrix(-0.24965125376512348,0.19504893620607203,-0.19504893620607203,-0.24965125376512348,1459.9693816496138,-143.38968537813327)" opacity="0.49"></path><path d="M1298 569H1348C1376 569 1398 591 1398 619H1348C1320 619 1298 597 1298 569Z " transform="matrix(-0.23113597483157866,0.20811576652107724,-0.20811576652107724,-0.23113597483157866,1783.192059386488,450.75471577954556)" opacity="0.48"></path><path d="M792 403H842C870 403 892 425 892 453H842C814 453 792 431 792 403Z " transform="matrix(-0.3433175820908662,0.08559868708366541,-0.08559868708366541,-0.3433175820908662,1167.7096421923184,502.8658306104445)" opacity="0.54"></path><path d="M1223 25H1273C1301 25 1323 47 1323 75H1273C1245 75 1223 53 1223 25Z " transform="matrix(-0.18234355076100686,0.23338910198092466,-0.23338910198092466,-0.18234355076100686,1516.792795217808,-237.98714928366678)" opacity="0.45"></path><path d="M760 624H810C838 624 860 646 860 674H810C782 674 760 652 760 624Z " transform="matrix(-0.3397671459896888,0.09104033238256459,-0.09104033238256459,-0.3397671459896888,1144.2965639679323,795.7662085174308)" opacity="0.54"></path><path d="M986 589H1036C1064 589 1086 611 1086 639H1036C1008 639 986 617 986 589Z " transform="matrix(-0.34844876576171985,0.07406507156847408,-0.07406507156847408,-0.34844876576171985,1442.468875272185,751.2161280327568)" opacity="0.55"></path><path d="M1324 63H1374C1402 63 1424 85 1424 113H1374C1346 113 1324 91 1324 63Z " transform="matrix(-0.11634776765688677,0.24950859292603197,-0.24950859292603197,-0.11634776765688677,1555.8185889380534,-244.58620312656188)" opacity="0.42"></path><path d="M151 640H201C229 640 251 662 251 690H201C173 690 151 668 151 640Z " transform="matrix(-0.1719957925981693,0.23673189932922997,-0.23673189932922997,-0.1719957925981693,392.99786736617,731.7940903126074)" opacity="0.45"></path><path d="M367 31H417C445 31 467 53 467 81H417C389 81 367 59 367 31Z " transform="matrix(-0.3596794071471506,0.05054964410572196,-0.05054964410572196,-0.3596794071471506,569.8170928502823,55.06284520815438)" opacity="0.56"></path><path d="M922 222H972C1000 222 1022 244 1022 272H972C944 272 922 250 922 222Z " transform="matrix(-0.35097513306285927,0.06822265486441051,-0.06822265486441051,-0.35097513306285927,1329.9988250886086,267.3784373383192)" opacity="0.55"></path><path d="M658 411H708C736 411 758 433 758 461H708C680 461 658 439 658 411Z " transform="matrix(-0.3131342287092763,0.13291759418030658,-0.13291759418030658,-0.3131342287092763,987.6511049887813,478.42086703758747)" opacity="0.52"></path><path d="M337 379H387C415 379 437 401 437 429H387C359 429 337 407 337 379Z " transform="matrix(-0.21660954481800215,0.21660954481800218,-0.21660954481800218,-0.21660954481800215,558.3381499510398,407.682362261906)" opacity="0.47"></path><path d="M687 178H737C765 178 787 200 787 228H737C709 228 687 206 687 178Z " transform="matrix(-0.3206479741085992,0.1230852251672584,-0.1230852251672584,-0.3206479741085992,998.3038576269911,177.3777277957762)" opacity="0.53"></path><path d="M1172 710H1222C1250 710 1272 732 1272 760H1222C1194 760 1172 738 1172 710Z " transform="matrix(-0.29760017970129876,0.15163486533192708,-0.15163486533192708,-0.29760017970129876,1697.1190456139534,768.4383266448397)" opacity="0.51"></path><path d="M218 353H268C296 353 318 375 318 403H268C240 403 218 381 218 353Z " transform="matrix(-0.18708096093801138,0.2310257467041954,-0.2310257467041954,-0.18708096093801138,405.46542978557295,386.80170311784394)" opacity="0.45"></path><path d="M1031 712H1081C1109 712 1131 734 1131 762H1081C1053 762 1031 740 1031 712Z " transform="matrix(-0.340623983896319,0.09126992140769052,-0.09126992140769052,-0.340623983896319,1516.4804586693888,889.3770910898736)" opacity="0.54"></path><path d="M261 643H311C339 643 361 665 361 693H311C283 693 261 671 261 643Z " transform="matrix(-0.19233358102330436,0.22921423616103254,-0.22921423616103254,-0.19233358102330436,523.9308534538173,725.1932046774862)" opacity="0.46"></path><path d="M113 439H163C191 439 213 461 213 489H163C135 489 113 467 113 439Z " transform="matrix(-0.16716985541606577,0.23874329579982195,-0.23874329579982195,-0.16716985541606577,301.02557568393604,502.65165569768357)" opacity="0.45"></path><path d="M921 111H971C999 111 1021 133 1021 161H971C943 161 921 139 921 111Z " transform="matrix(-0.3338973895479464,0.10208267644376154,-0.10208267644376154,-0.3338973895479464,1309.0976092474077,82.28776615162825)" opacity="0.54"></path><path d="M806 278H856C884 278 906 300 906 328H856C828 328 806 306 806 278Z " transform="matrix(-0.3433175820908662,0.08559868708366541,-0.08559868708366541,-0.3433175820908662,1175.8162524561321,333.75275122991485)" opacity="0.54"></path><path d="M491 26H541C569 26 591 48 591 76H541C513 76 491 54 491 26Z " transform="matrix(-0.36135624009876327,0.04436896727005124,-0.04436896727005124,-0.36135624009876327,738.7565432242035,45.42555695193921)" opacity="0.56"></path><path d="M1317 227H1367C1395 227 1417 249 1417 277H1367C1339 277 1317 255 1317 227Z " transform="matrix(-0.21155007106923168,0.21906651147673895,-0.21906651147673895,-0.21155007106923168,1711.3937080437777,5.846696720744234)" opacity="0.47"></path><path d="M426 219H476C504 219 526 241 526 269H476C448 269 426 247 426 219Z " transform="matrix(-0.24510821034341843,0.1984847151411037,-0.1984847151411037,-0.24510821034341843,641.1017786178965,209.32767891662877)" opacity="0.48"></path><path d="M454 125H504C532 125 554 147 554 175H504C476 175 454 153 454 125Z " transform="matrix(-0.2770374352339843,0.17311220260928203,-0.17311220260928203,-0.2770374352339843,669.5936977493204,104.3070651700195)" opacity="0.50"></path><path d="M854 563H904C932 563 954 585 954 613H904C876 613 854 591 854 563Z " transform="matrix(-0.34887989230126215,0.0741567103433639,-0.0741567103433639,-0.34887989230126215,1262.991568322239,726.1037105227413)" opacity="0.55"></path><path d="M1151 242H1201C1229 242 1251 264 1251 292H1201C1173 292 1151 270 1151 242Z " transform="matrix(-0.30946704946584674,0.13778360757999078,-0.13778360757999078,-0.30946704946584674,1609.4581496323394,184.14958950381217)" opacity="0.52"></path><path d="M555 234H605C633 234 655 256 655 284H605C577 284 555 262 555 234Z " transform="matrix(-0.2853755935627997,0.1647616757636316,-0.1647616757636316,-0.2853755935627997,820.3255081282744,233.231464895768)" opacity="0.50"></path><path d="M8 27H58C86 27 108 49 108 77H58C30 77 8 55 8 27Z " transform="matrix(-0.35452931379706476,0.06251308347448034,-0.06251308347448034,-0.35452931379706476,81.81338054090273,66.8097654759275)" opacity="0.55"></path><path d="M204 132H254C282 132 304 154 304 182H254C226 182 204 160 204 132Z " transform="matrix(-0.22143267476352732,0.21383504839464393,-0.21383504839464393,-0.22143267476352732,343.81600198789505,137.45082764563423)" opacity="0.47"></path><path d="M103 184H153C181 184 203 206 203 234H153C125 234 103 212 103 184Z " transform="matrix(-0.16716985541606577,0.23874329579982195,-0.23874329579982195,-0.16716985541606577,228.47433670082086,207.41077552458498)" opacity="0.45"></path></g></svg>